<?xml version="1.0" standalone="no"?>
<!DOCTYPE svg PUBLIC "-//W3C//DTD SVG 20010904//EN"
 "http://www.w3.org/TR/2001/REC-SVG-20010904/DTD/svg10.dtd">
<svg version="1.0" xmlns="http://www.w3.org/2000/svg"
 width="16.000000pt" height="16.000000pt" viewBox="0 0 16.000000 16.000000"
 preserveAspectRatio="xMidYMid meet">
<metadata>
Created by potrace 1.11, written by Peter Selinger 2001-2013
</metadata>
<g transform="translate(0.000000,16.000000) scale(0.003200,-0.003200)"
fill="#000000" stroke="none">
<path d="M1206 3774 c-221 -36 -389 -119 -536 -266 -126 -126 -207 -273 -255
-462 -33 -132 -36 -154 -40 -336 -4 -221 15 -358 75 -520 116 -320 364 -532
706 -606 108 -23 353 -27 463 -8 159 28 349 102 454 176 l27 19 0 145 c0 79
-2 144 -5 144 -3 0 -32 -21 -64 -47 -33 -27 -85 -63 -116 -82 -61 -37 -202
-96 -250 -104 -16 -3 -57 -11 -90 -16 -72 -13 -269 -7 -345 9 -302 68 -487
292 -538 655 -14 100 -7 385 12 475 37 175 106 310 210 414 75 74 201 142 301
162 11 2 31 7 45 10 14 3 84 7 155 9 238 6 430 -58 616 -207 32 -27 61 -48 64
-48 3 0 5 67 5 150 l0 150 -38 24 c-229 144 -564 207 -856 160z"/>
<path d="M2530 2675 l0 -1075 265 0 265 0 2 735 3 734 63 -122 c34 -67 85
-165 113 -217 28 -52 78 -147 111 -210 34 -63 80 -151 103 -195 23 -44 113
-215 200 -380 86 -165 164 -310 171 -322 l14 -23 310 0 310 0 0 1075 0 1075
-265 0 -265 0 0 -732 c0 -412 -4 -728 -9 -722 -4 5 -41 72 -81 149 -78 150
-150 287 -210 400 -40 75 -99 187 -201 380 -34 66 -91 174 -126 240 -35 66
-82 157 -105 203 l-43 82 -312 0 -313 0 0 -1075z"/>
</g>
</svg>
